# Blender 4.2.2 LTS
# www.blender.org
mtllib tablero.mtl
o Base
v -20.000000 -20.000000 -0.318001
v -20.000000 -20.000000 0.317999
v -20.000000 20.000000 -0.317999
v -20.000000 20.000000 0.318001
v 20.000000 -20.000000 -0.318001
v 20.000000 -20.000000 0.317999
v 20.000000 20.000000 -0.317999
v 20.000000 20.000000 0.318001
v -23.359434 -23.359434 1.712018
v -23.359434 -23.359434 -0.335805
v -23.359434 23.359434 1.712020
v -23.359434 23.359434 -0.335803
v 23.359434 -23.359434 1.712018
v 23.359434 -23.359434 -0.335805
v 23.359434 23.359434 1.712020
v 23.359434 23.359434 -0.335803
v 20.000000 -20.000000 1.712018
v -20.000000 20.000000 1.712020
v 20.000000 20.000000 1.712020
v -20.000000 -20.000000 1.712018
v -20.000000 -20.000000 -0.335805
v 20.000000 20.000000 -0.335803
v -20.000000 20.000000 -0.335803
v 20.000000 -20.000000 -0.335805
vn -1.0000 -0.0000 -0.0000
vn -0.0000 1.0000 -0.0000
vn 1.0000 -0.0000 -0.0000
vn -0.0000 -1.0000 -0.0000
vn -0.0000 -0.0000 -1.0000
vn -0.0000 -0.0000 1.0000
vt 0.375000 0.000000
vt 0.625000 0.000000
vt 0.625000 0.250000
vt 0.375000 0.250000
vt 0.625000 0.500000
vt 0.375000 0.500000
vt 0.625000 0.750000
vt 0.375000 0.750000
vt 0.625000 1.000000
vt 0.375000 1.000000
vt 0.125000 0.500000
vt 0.125000 0.750000
vt 0.875000 0.500000
vt 0.875000 0.750000
vt 0.142977 0.732023
vt 0.357023 0.732023
vt 0.357023 0.517977
vt 0.142977 0.517977
vt 0.642977 0.732023
vt 0.857023 0.732023
vt 0.857023 0.517977
vt 0.642977 0.517977
vt 0.470460 0.000000
vt 0.600131 0.000000
vt 0.600131 0.250000
vt 0.470460 0.250000
vt 0.600131 0.500000
vt 0.470460 0.500000
vt 0.600131 0.750000
vt 0.470460 0.750000
vt 0.600131 1.000000
vt 0.470460 1.000000
s 0
usemtl Material.002
f 1/1/1 2/2/1 4/3/1 3/4/1
f 3/4/2 4/3/2 8/5/2 7/6/2
f 7/6/3 8/5/3 6/7/3 5/8/3
f 5/8/4 6/7/4 2/9/4 1/10/4
f 3/11/5 7/6/5 5/8/5 1/12/5
f 8/5/6 4/13/6 2/14/6 6/7/6
usemtl Material.001
f 9/1/3 10/2/3 12/3/3 11/4/3
f 11/4/4 12/3/4 16/5/4 15/6/4
f 15/6/1 16/5/1 14/7/1 13/8/1
f 13/8/2 14/7/2 10/9/2 9/10/2
f 20/15/5 9/12/5 11/11/5 15/6/5 13/8/5 17/16/5 19/17/5 18/18/5
f 13/8/5 9/12/5 20/15/5 17/16/5
f 12/13/6 10/14/6 14/7/6 24/19/6 21/20/6 23/21/6
f 14/7/6 16/5/6 12/13/6 23/21/6 22/22/6 24/19/6
f 21/23/1 20/24/1 18/25/1 23/26/1
f 23/26/2 18/25/2 19/27/2 22/28/2
f 19/27/3 17/29/3 24/30/3 22/28/3
f 17/29/4 20/31/4 21/32/4 24/30/4
